# xmcd
#
# Track frame offsets:
#	150
#	22469
#	44008
#	66624
#	88059
#	109868
#	131857
#	151098
#	170386
#	192757
#	215154
#	236418
#	258883
#	280073
#	298871
#
# Disc length: 4222 seconds
#
# Revision: 1
# Processed by: cddbd v1.5.2PL0 Copyright (c) Steve Scherf et al.
# Submitted via: audiograbber 1.83.01
#
DISCID=ec107c0f
DTITLE=Domingo Quiñones - Feeling´s - Feeling´s
DYEAR=1900
DGENRE=Salsa
TTITLE0=Si te hubiera conocido ayer
TTITLE1=Estuve tan cerca
TTITLE2=Falta de valor
TTITLE3=Yo te conozco
TTITLE4=Pintando Lunas
TTITLE5=Te quiero
TTITLE6=Dimelo cantando
TTITLE7=No voy dejarte ir
TTITLE8=Tu pecho mi almohada
TTITLE9=Tu como estas
TTITLE10=Fuera de control
TTITLE11=Una historia
TTITLE12=Siempre un poco mas
TTITLE13=Si tu te vas
TTITLE14=Dos amigos
EXTD=
EXTT0=
EXTT1=
EXTT2=
EXTT3=
EXTT4=
EXTT5=
EXTT6=
EXTT7=
EXTT8=
EXTT9=
EXTT10=
EXTT11=
EXTT12=
EXTT13=
EXTT14=
PLAYORDER=
